PathFileType	4	(X/Y/Z)	/Users/itak/Documents/Research/Walk-IL/dataset/trc/00457_00167.trc
DataRate	CameraRate	NumFrames	NumMarkers	Units	OrigDataRate	OrigDataStartFrame	OrigNumFrames
100.000000	100.000000	4	53	mm	100.000000	278	557
Frame#	Time	RPSI			LPSI			L3			STRN			T10			C7			CLAV			RBAK			LBAK			LSHO			LUPA			LAEL			LAOL			LWTS			LWPS			LFRA			LIFD			LHPS			LHTS			RSHO			RUPA			RAEL			RAOL			RWTS			RWPS			RFRA			RIFD			RHTS			RHPS			RBHD			LFHD			RFHD			LBHD			LHIP			RHIP			RASI			LASI			LKNE			LTHI			LANK			LTIP			LTOE			LMT1			LMT5			LHEE			RKNE			RTHI			RANK			RTIP			RTOE			RMT1			RMT5			RHEE			
		X1	Y1	Z1	X2	Y2	Z2	X3	Y3	Z3	X4	Y4	Z4	X5	Y5	Z5	X6	Y6	Z6	X7	Y7	Z7	X8	Y8	Z8	X9	Y9	Z9	X10	Y10	Z10	X11	Y11	Z11	X12	Y12	Z12	X13	Y13	Z13	X14	Y14	Z14	X15	Y15	Z15	X16	Y16	Z16	X17	Y17	Z17	X18	Y18	Z18	X19	Y19	Z19	X20	Y20	Z20	X21	Y21	Z21	X22	Y22	Z22	X23	Y23	Z23	X24	Y24	Z24	X25	Y25	Z25	X26	Y26	Z26	X27	Y27	Z27	X28	Y28	Z28	X29	Y29	Z29	X30	Y30	Z30	X31	Y31	Z31	X32	Y32	Z32	X33	Y33	Z33	X34	Y34	Z34	X35	Y35	Z35	X36	Y36	Z36	X37	Y37	Z37	X38	Y38	Z38	X39	Y39	Z39	X40	Y40	Z40	X41	Y41	Z41	X42	Y42	Z42	X43	Y43	Z43	X44	Y44	Z44	X45	Y45	Z45	X46	Y46	Z46	X47	Y47	Z47	X48	Y48	Z48	X49	Y49	Z49	X50	Y50	Z50	X51	Y51	Z51	X52	Y52	Z52	X53	Y53	Z53	

279	2.78	-417.4456787109375	928.5558471679688	-740.5963745117188	-362.99365234375	918.8923950195312	-873.11572265625	-390.4205932617188	1020.348815917969	-778.677734375	-135.6471710205078	1221.3251953125	-690.0621337890625	-410.0740661621094	1145.081298828125	-779.927490234375	-353.4208374023438	1412.40625	-734.6222534179688	-172.3431701660156	1333.877807617188	-699.4666137695312	-438.720947265625	1287.234497070312	-667.9286499023438	-356.2729187011719	1370.43017578125	-840.6287841796875	-235.515380859375	1396.76806640625	-889.7130126953125	-217.853759765625	1282.21240234375	-991.6639404296875	-194.8265075683594	1067.443237304688	-1029.485961914062	-286.85009765625	1053.557739257812	-983.198486328125	-138.4828796386719	857.2581176757812	-987.7742919921875	-173.4820556640625	849.6986083984375	-1053.03857421875	-177.6327819824219	979.4032592773438	-1041.55078125	-139.4561157226562	689.3486328125	-1008.238098144531	-168.9720611572266	771.4882202148438	-1058.814819335938	-123.9928588867188	772.0805053710938	-1002.760986328125	-337.0945129394531	1376.433349609375	-562.8145751953125	-374.5218811035156	1310.83837890625	-498.3248596191406	-355.0182800292969	1020.962036132812	-449.5609436035156	-394.398193359375	997.3046264648438	-499.402099609375	-195.1530914306641	858.5090942382812	-489.2614135742188	-261.7427062988281	818.7271728515625	-446.1338500976562	-337.2081909179688	963.886962890625	-443.1030578613281	-143.4470825195312	711.8173828125	-482.2237548828125	-151.8900451660156	770.7835693359375	-476.0665283203125	-217.8166809082031	742.3486938476562	-448.4096374511719	-324.5263061523438	1604.640991210938	-642.101318359375	-123.0897674560547	1630.139770507812	-678.690673828125	-204.9429931640625	1626.05224609375	-576.817626953125	-225.3806610107422	1614.1513671875	-790.2807006835938	-174.9733123779297	833.7075805664062	-922.0932006835938	-364.9732360839844	824.8898315429688	-564.0225830078125	-242.2198486328125	863.522705078125	-582.0840454101562	-132.8009490966797	878.4953002929688	-810.2701416015625	-10.6385326385498	456.5126647949219	-846.0882568359375	-44.93008041381836	600.01953125	-871.1416015625	43.95244979858398	38.18957901000977	-910.9378051757812	31.24226951599121	311.3557434082031	-866.6129150390625	147.2384643554688	86.03543090820312	-697.0247802734375	74.32530975341797	73.98339080810547	-730.6591186523438	154.8492584228516	63.43401336669922	-806.6683349609375	-33.20967102050781	33.60631561279297	-895.40869140625	-362.8633422851562	435.5166015625	-638.0942993164062	-325.5988464355469	685.0115356445312	-565.1328125	-578.9165649414062	62.64797210693359	-687.6387329101562	-412.4873352050781	294.9913330078125	-653.4886474609375	-380.8023986816406	44.58161544799805	-786.16455078125	-449.1732177734375	55.15008163452148	-799.9006958007812	-445.44287109375	46.40564727783203	-693.2216796875	-652.9317626953125	78.94402313232422	-721.0076904296875	
280	2.79	-407.6335754394531	927.8203125	-742.4622192382812	-351.3783264160156	918.4852905273438	-874.447509765625	-379.5829162597656	1019.684631347656	-780.6046752929688	-126.630500793457	1220.904541015625	-687.4962768554688	-399.3489685058594	1144.403076171875	-782.522216796875	-343.6329040527344	1411.830810546875	-736.4119262695312	-163.2452850341797	1333.433837890625	-697.5825805664062	-430.2480163574219	1286.575561523438	-671.51318359375	-344.3442077636719	1369.790771484375	-842.49951171875	-222.6063232421875	1395.927001953125	-889.3156127929688	-203.0390625	1280.662353515625	-990.443603515625	-180.9274597167969	1065.695190429688	-1026.772827148438	-273.8358154296875	1052.968383789062	-981.8018798828125	-130.4621887207031	853.161376953125	-986.8643188476562	-164.7953338623047	847.7194213867188	-1052.674438476562	-165.6553497314453	977.5054931640625	-1039.489013671875	-137.9547882080078	685.510986328125	-1009.987548828125	-163.5384521484375	769.400634765625	-1059.379760742188	-119.3004150390625	767.3259887695312	-1002.847778320312	-330.9438171386719	1375.8779296875	-564.278076171875	-369.8542785644531	1310.237182617188	-500.7011108398438	-353.4913635253906	1020.235046386719	-452.0761413574219	-391.9916076660156	997.490966796875	-502.8755493164062	-197.5168609619141	852.9290771484375	-487.0306396484375	-266.6688842773438	815.3682861328125	-446.0418395996094	-337.4930419921875	962.7059936523438	-445.0690612792969	-150.8587951660156	704.6346435546875	-478.3014526367188	-157.6089172363281	763.8258056640625	-472.5432739257812	-225.2393646240234	737.6385498046875	-446.8291625976562	-317.0109558105469	1604.199951171875	-643.452392578125	-115.0590744018555	1630.227172851562	-676.4725952148438	-198.6656799316406	1626.023559570312	-576.043212890625	-215.4399261474609	1613.829711914062	-789.791748046875	-163.0514678955078	833.3458251953125	-921.0032958984375	-357.2487182617188	823.7991943359375	-565.5067138671875	-234.3358154296875	862.7556762695312	-582.0570068359375	-121.4900588989258	878.5029296875	-808.7998046875	-0.2849038243293762	455.9712219238281	-841.7887573242188	-34.27900695800781	599.3290405273438	-867.920654296875	46.21855926513672	36.97455215454102	-910.3015747070312	39.28481674194336	309.5309448242188	-862.821044921875	147.9459838867188	77.52469635009766	-693.4475708007812	75.29754638671875	69.07639312744141	-728.6509399414062	156.6624755859375	56.72575759887695	-803.8431396484375	-31.31875419616699	34.91418075561523	-895.6704711914062	-353.5162963867188	434.27392578125	-637.8286743164062	-317.667236328125	684.076171875	-565.8793334960938	-578.1212158203125	65.96170043945312	-688.0899658203125	-406.0767822265625	294.7890930175781	-653.1317138671875	-380.8376770019531	44.62971115112305	-786.0897216796875	-448.4687194824219	55.60243988037109	-799.8599853515625	-445.4577941894531	46.16831588745117	-693.4100341796875	-651.428466796875	84.87567901611328	-721.8738403320312	
281	2.8	-398.0881958007812	926.9508056640625	-744.112548828125	-340.0043640136719	918.2369995117188	-875.5148315429688	-368.8934631347656	1019.280822753906	-782.43115234375	-117.5907363891602	1220.672485351562	-684.9017944335938	-388.5473937988281	1143.999633789062	-785.0657348632812	-333.7149353027344	1411.504516601562	-738.149658203125	-154.1073608398438	1333.185180664062	-695.6808471679688	-421.6743469238281	1286.166625976562	-675.100341796875	-332.2678527832031	1369.398803710938	-844.289794921875	-209.6115112304688	1395.316772460938	-888.8201904296875	-188.2305297851562	1279.332641601562	-989.1161499023438	-166.9899139404297	1064.191528320312	-1023.947875976562	-260.7461242675781	1052.588989257812	-980.3974609375	-122.1998291015625	849.5202026367188	-985.6353149414062	-155.638916015625	846.1340942382812	-1052.051147460938	-153.4745025634766	975.9027099609375	-1037.240478515625	-136.2579345703125	682.3461303710938	-1011.537109375	-157.6298065185547	767.8350219726562	-1059.70751953125	-114.4297256469727	763.0902709960938	-1002.620483398438	-324.6858825683594	1375.484497070312	-565.7664184570312	-365.0766296386719	1309.782348632812	-503.1495971679688	-351.9404907226562	1019.75244140625	-454.6713562011719	-389.4390869140625	997.9171142578125	-506.4697265625	-200.3528137207031	847.5397338867188	-484.7793579101562	-272.0258483886719	812.4012451171875	-446.086669921875	-337.8784484863281	961.8253784179688	-447.1449279785156	-159.1134338378906	697.7347412109375	-474.426513671875	-164.0576629638672	757.1101684570312	-469.033935546875	-233.3099365234375	733.3433227539062	-445.3940734863281	-309.4410705566406	1603.933837890625	-644.7596435546875	-106.9888763427734	1630.537353515625	-674.13720703125	-192.3934478759766	1626.1611328125	-575.2244873046875	-205.3840484619141	1613.750610351562	-789.1929321289062	-151.2081146240234	833.4428100585938	-919.6947631835938	-349.5828857421875	822.6318969726562	-566.8500366210938	-226.6415557861328	862.1846923828125	-581.912109375	-110.4104690551758	878.8311767578125	-807.0750732421875	9.878290176391602	455.7600708007812	-838.1331787109375	-23.72131538391113	599.1286010742188	-864.8558959960938	48.15680694580078	35.99338150024414	-910.1598510742188	47.07492446899414	308.2013244628906	-859.8489379882812	148.9096374511719	69.95431518554688	-691.016845703125	76.51809692382812	65.030029296875	-727.4344482421875	158.6060943603516	50.75693893432617	-802.1854248046875	-29.59892463684082	36.38026428222656	-896.179443359375	-343.2561645507812	433.0068969726562	-637.0352172851562	-309.514404296875	683.1937255859375	-566.4191284179688	-577.1397705078125	69.92829132080078	-688.7783813476562	-399.046630859375	294.7905883789062	-652.3983154296875	-381.0385437011719	44.73466491699219	-785.9638061523438	-447.6263427734375	56.18123245239258	-799.894287109375	-445.6508178710938	45.83976364135742	-693.6605224609375	-649.35986328125	91.89449310302734	-723.0882568359375	
282	2.81	-388.8546142578125	925.9549560546875	-745.5638427734375	-328.9265441894531	918.2117919921875	-876.298583984375	-358.435546875	1019.190002441406	-784.1365356445312	-108.5608291625977	1220.654052734375	-682.2576904296875	-377.7385864257812	1143.921508789062	-787.5262451171875	-323.6952819824219	1411.457397460938	-739.814697265625	-144.9651489257812	1333.153930664062	-693.74951171875	-413.0327453613281	1286.06298828125	-678.6397705078125	-320.0667114257812	1369.286987304688	-845.9711303710938	-196.5460510253906	1394.967041015625	-888.1939697265625	-173.4393157958984	1278.287475585938	-987.6689453125	-153.0506591796875	1062.981323242188	-1021.032592773438	-247.6110229492188	1052.467529296875	-979.0272216796875	-113.6669998168945	846.3955688476562	-984.0502319335938	-145.9642181396484	844.9559326171875	-1051.13525390625	-141.0919494628906	974.63427734375	-1034.812622070312	-134.19970703125	679.9126586914062	-1012.787902832031	-151.1247100830078	766.7999877929688	-1059.742553710938	-109.2697830200195	759.4592895507812	-1002.01513671875	-318.3028869628906	1375.285888671875	-567.2471313476562	-360.1684265136719	1309.512329101562	-505.632080078125	-350.3597717285156	1019.560302734375	-457.336669921875	-386.7330627441406	998.6323852539062	-510.1863708496094	-203.6487121582031	842.4361572265625	-482.5352172851562	-277.768310546875	809.9170532226562	-446.3014221191406	-338.3426513671875	961.2999877929688	-449.3358459472656	-168.1836242675781	691.2510375976562	-470.6402282714844	-171.2184448242188	750.7630615234375	-465.5724487304688	-241.9797668457031	729.5783081054688	-444.1512756347656	-301.8193054199219	1603.853149414062	-646.0171508789062	-98.89620971679688	1631.065795898438	-671.6900024414062	-186.1314544677734	1626.47802734375	-574.365478515625	-195.2308654785156	1613.901733398438	-788.4810180664062	-139.4586181640625	834.0726318359375	-918.1514282226562	-342.04248046875	821.3952026367188	-568.0606079101562	-219.22119140625	861.8209838867188	-581.6396484375	-99.66473388671875	879.511474609375	-805.0609130859375	19.74259948730469	455.7817993164062	-835.1201782226562	-13.24155712127686	599.5099487304688	-861.9090576171875	49.76880264282227	35.21195602416992	-910.3607177734375	54.49569702148438	307.2421569824219	-857.6582641601562	150.1394958496094	63.66952133178711	-689.6840209960938	77.99832153320312	61.9378547668457	-726.9051513671875	160.6421203613281	45.83872604370117	-801.6151123046875	-28.06953048706055	37.79166793823242	-896.779541015625	-332.0559387207031	431.7740478515625	-635.5672607421875	-301.1837158203125	682.3754272460938	-566.6819458007812	-575.9136962890625	74.67720794677734	-689.8548583984375	-391.3815307617188	295.1006164550781	-651.1950073242188	-381.4194641113281	44.88932800292969	-785.7546997070312	-446.5913391113281	56.90152359008789	-800.0339965820312	-446.0835876464844	45.45429992675781	-694.01904296875	-646.5316162109375	100.1654663085938	-724.8392333984375	
